<svg width="47" height="47" viewBox="0 0 47 47" xmlns="http://www.w3.org/2000/svg" xmlns:xlink="http://www.w3.org/1999/xlink">
    <defs>
        <path id="pgeojjrvia" d="M0 0h47v47H0z"/>
    </defs>
    <g fill="none" fill-rule="evenodd">
        <mask id="pf1oail97b" fill="#fff">
            <use xlink:href="#pgeojjrvia"/>
        </mask>
        <path d="M45.329 21.867 25.643 1.134A3.647 3.647 0 0 0 23 0a3.61 3.61 0 0 0-2.643 1.134A62634.35 62634.35 0 0 1 .67 21.871a2.446 2.446 0 0 0-.473 2.644 2.45 2.45 0 0 0 2.244 1.479H3.46v17.318a3.711 3.711 0 0 0 1.642 3.064c.2.134.412.249.638.34A3.708 3.708 0 0 0 7.15 47h31.702a3.708 3.708 0 0 0 3.405-2.279 3.709 3.709 0 0 0 .282-1.41V25.989h1.018c.24 0 .473-.035.703-.102.227-.07.443-.17.642-.3.199-.133.376-.29.528-.471.155-.184.278-.386.372-.604.093-.22.154-.449.183-.686a2.505 2.505 0 0 0-.023-.707 2.479 2.479 0 0 0-.225-.674 2.394 2.394 0 0 0-.408-.577zM16.93 44.785V27.283a.877.877 0 0 1 .262-.632.867.867 0 0 1 .632-.262h10.35a.878.878 0 0 1 .63.262.892.892 0 0 1 .263.632v17.502H16.931zM43.56 23.81h-2.107a1.04 1.04 0 0 0-.416.084 1.085 1.085 0 0 0-.672 1.006V43.31c0 .202-.04.394-.116.58a1.483 1.483 0 0 1-.33.489 1.48 1.48 0 0 1-.49.328 1.48 1.48 0 0 1-.576.116h-7.608v-17.54a3.126 3.126 0 0 0-.234-1.175 3.084 3.084 0 0 0-.664-.995 3.092 3.092 0 0 0-1.573-.84 3.087 3.087 0 0 0-.597-.058h-10.35c-.204 0-.403.018-.6.057a3.121 3.121 0 0 0-1.107.46 3.076 3.076 0 0 0-1.363 2.55v17.544H7.147a1.511 1.511 0 0 1-1.396-.936 1.48 1.48 0 0 1-.115-.578V24.904a1.079 1.079 0 0 0-.319-.769 1.068 1.068 0 0 0-.77-.318H2.44a.25.25 0 0 1-.243-.16.244.244 0 0 1 .052-.286L21.935 2.633c.14-.142.303-.25.488-.328a1.516 1.516 0 0 1 1.154 0c.185.078.347.186.487.328l19.688 20.731a.227.227 0 0 1 .07.225.243.243 0 0 1-.09.159.258.258 0 0 1-.173.063z" fill="#B5BCC2" fill-rule="nonzero" mask="url(#pf1oail97b)"/>
    </g>
</svg>
